<?xml version="1.0" encoding="UTF-8"?><svg id="Layer_2" xmlns="http://www.w3.org/2000/svg" viewBox="0 0 43.77 20.67"><defs><style>.cls-1{fill:#332e27;}</style></defs><g id="Layer_1-2"><g><path class="cls-1" d="m0,9.37c.89-.04,1.51-.46,1.76-1.33.1-.34.13-.71.14-1.07.02-1.17,0-2.35.03-3.52C1.99,1.32,3.05.2,5.19.09c1.42-.07,2.86,0,4.36,0v12.62c0,1.53.18,1.77,1.68,2.19-.11.65-.22,1.3-.33,1.99-.99,0-1.92-.09-2.74-.64-1.01-.67-1.12-1.74-1.13-2.8-.02-3.57,0-7.15,0-10.72v-.75c-.67.07-1.31.07-1.9.23-.6.16-.83.71-.84,1.3-.03,1.02-.01,2.04-.03,3.05,0,.52-.03,1.04-.08,1.55-.11.92-.51,1.67-1.49,2.29.19.08.3.1.38.16.73.54,1.08,1.3,1.12,2.18.06,1.17.06,2.35.08,3.52,0,.29,0,.59.02.88.05.94.55,1.44,1.5,1.52.2.02.41.02.65.04v1.98c-1.17-.05-2.34-.06-3.35-.79-.83-.6-1.09-1.49-1.12-2.45-.05-1.21-.03-2.42-.04-3.62,0-.22,0-.45-.04-.67-.16-1.16-.67-1.67-1.86-1.82v-1.93l-.03-.02Z"/><path class="cls-1" d="m21.32,11.88h-7.35c-.19.91.41,2.02,1.34,2.5.91.47,1.89.5,2.88.37.66-.09,1.31-.25,2.02-.4.1.55.22,1.12.29,1.7.01.11-.13.33-.24.37-2.11.65-4.22.88-6.3-.1-.99-.46-1.72-1.23-2.14-2.23-.82-1.99-.84-4.01.08-5.97,1.29-2.75,4.49-3.45,6.88-2.31,1.39.67,2.08,1.89,2.32,3.35.14.86.14,1.74.21,2.72h.01Zm-2.6-1.86c.05-1.64-.9-2.65-2.4-2.62-1.33.03-2.47,1.28-2.36,2.62h4.77-.01Z"/><path class="cls-1" d="m43.73,11.29c-1.22.15-1.78.66-1.88,1.82-.09.99-.04,2-.05,3,0,.53.02,1.08-.06,1.6-.25,1.76-1.23,2.66-3.03,2.83-.46.04-.92.07-1.42.11v-1.98c.3-.04.61-.05.91-.11.86-.19,1.21-.59,1.24-1.47.03-1.03,0-2.07.03-3.11,0-.57.06-1.14.14-1.7.12-.83.56-1.47,1.35-1.98-.84-.52-1.3-1.24-1.39-2.14-.09-.84-.08-1.69-.1-2.53-.02-.67,0-1.35-.02-2.02-.04-1.07-.55-1.57-1.61-1.62-.17,0-.34-.02-.54-.03V0c1.19.04,2.38.05,3.39.81.81.61,1.05,1.52,1.09,2.47.05,1.22,0,2.45.05,3.68,0,.42.07.87.21,1.27.21.61.66,1.01,1.33,1.08.3.03.41.15.4.46-.02.5,0,1,0,1.53h-.04Z"/><path class="cls-1" d="m22.17,14.43c1.18.16,2.29.33,3.41.46.3.03.62-.04.92-.1.43-.09.77-.31.87-.77.11-.48-.06-.88-.44-1.13-.43-.28-.9-.5-1.37-.72-.62-.29-1.28-.51-1.89-.83-1.31-.67-1.8-1.79-1.64-3.22.15-1.3.93-2.09,2.11-2.5,1.74-.6,3.46-.33,5.22.19-.15.68-.3,1.33-.43,1.93-.73-.14-1.42-.32-2.11-.37-.54-.04-1.11.01-1.62.17-.84.27-.98,1.27-.28,1.8.39.29.87.48,1.32.68.66.3,1.34.54,1.99.87,1.42.71,1.83,1.94,1.63,3.42-.17,1.31-1.05,2.03-2.25,2.35-1.84.49-3.68.41-5.49-.21-.13-.04-.29-.27-.28-.38.09-.59.23-1.17.33-1.63h0Z"/><path class="cls-1" d="m37.76,5.71c-.18.8-.32,1.41-.46,2.02-.7-.13-1.38-.32-2.07-.37-.54-.04-1.09.05-1.63.16-.39.08-.66.37-.72.79-.07.45.08.84.46,1.08.41.25.85.45,1.29.64.57.25,1.15.46,1.71.73,1.55.76,2.1,1.8,1.91,3.53-.14,1.21-1.01,2.11-2.54,2.45-1.86.41-3.69.3-5.56-.39.13-.67.27-1.34.4-2.01.78.18,1.52.42,2.27.5.66.08,1.34.02,2-.04.45-.04.81-.28.91-.79.1-.5-.07-.92-.49-1.16-.58-.33-1.2-.59-1.81-.87-.59-.28-1.2-.53-1.76-.86-1.79-1.04-1.77-4.2.24-5.23.92-.47,1.9-.65,2.9-.58.97.07,1.93.27,2.94.42v-.02Z"/></g></g></svg>