<?xml version="1.0" encoding="UTF-8"?><svg id="Layer_2" xmlns="http://www.w3.org/2000/svg" viewBox="0 0 39.66 13.96"><defs><style>.cls-1{fill:#332E27;}</style></defs><g id="Layer_1-2"><g><path class="cls-1" d="m.52,8.69c-.18.41-.33.77-.52,1.22.43.15.79.28,1.18.42.18-.42.33-.8.51-1.21-.41-.15-.77-.28-1.17-.43Z"/><path class="cls-1" d="m16.26.75c-.2.8.5.65.91.89.1-.77-.16-1-.91-.89Z"/><path class="cls-1" d="m11.53.12c.05.84.64.47,1.06.51-.13-.7-.17-.72-1.06-.51Z"/><path class="cls-1" d="m8.54,10.18c.4-4.92,4.77-7.86,9.5-6.46,1.45.43,2.75,1.14,3.97,2,.36.25.36.24.67-.11-2.24-2.03-4.74-3.6-7.71-4.32-2.57-.62-4.96-.2-7.17,1.29-1.41.95-2.63,2.08-3.65,3.43-1.79,2.34-2.92,4.97-3.44,7.92h7.82c0-1.28-.09-2.52.01-3.75Z"/><path class="cls-1" d="m34.54,12.14v1.83c1.02,0,1.99,0,2.96,0,1.44,0,2.14-.72,2.16-2.19.01-1.52-.68-2.25-2.15-2.27-.43,0-.86,0-1.31,0v-.79h3.15v-1.85c-1.08,0-2.12-.03-3.15,0-.86.03-1.58.66-1.74,1.51-.34,1.78.48,3,2.28,2.88.14,0,.29,0,.43,0,.71,0,.75.05.54.88h-3.16Z"/><path class="cls-1" d="m7.71,2.13c.27-.16.5-.29.78-.46-.18-.27-.31-.47-.47-.7-.28.15-.5.28-.79.44.18.27.32.47.48.71Z"/><path class="cls-1" d="m28.24,13.94v-7.03h-1.99v7.03h1.99Z"/><path class="cls-1" d="m25.34,13.94c0-1.76.01-3.45,0-5.15,0-1.19-.75-1.91-1.96-1.94-.54-.01-1.08,0-1.62,0-1.37,0-2.1.72-2.11,2.11-.01,1.49,0,2.98,0,4.47,0,.16.03.32.04.48h1.9c.02-.42.04-.8.06-1.17h1.8v1.19h1.89Zm-1.92-3.3h-1.81c0-.55-.03-1.08.02-1.6.02-.16.25-.36.43-.42.22-.08.49-.03.73-.03.43-.01.65.17.63.63-.02.45,0,.9,0,1.43Z"/><path class="cls-1" d="m29.09,6.91v7.02h4.72v-1.85h-2.7v-5.17h-2.03Z"/><path class="cls-1" d="m11.01,6.91c.23-.28.41-.49.61-.73-.16-.22-.31-.43-.49-.67-.24.27-.42.46-.61.67.16.24.31.45.49.72Z"/><path class="cls-1" d="m17.19,3.85c-.32-.04-.62-.07-.95-.1v.62c.31.05.61.09.95.14v-.66Z"/><path class="cls-1" d="m10.17,13.54c-.06-1.26-.08-1.28-1.22-1.54-.03,1.24.1,1.4,1.22,1.54Z"/><path class="cls-1" d="m9.42,8.37c-.47.98-.44,1.09.42,1.59.4-1.03.39-1.06-.42-1.59Z"/><path class="cls-1" d="m12.81,13.93h1.92v-1.45c.47.42.89.81,1.32,1.19.13.12.3.28.45.28.84.03,1.68.01,2.52.01.03-.07.07-.14.1-.2-.7-.64-1.41-1.28-2.14-1.94.16-.09.23-.13.3-.17,1.03-.47,1.51-1.31,1.41-2.51-.09-1.14-.73-2.08-1.84-2.2-1.34-.14-2.71-.03-4.06-.03v7.02Zm1.96-5.42c.64.16,1.21.23,1.71.47.13.06.13.87,0,.93-.5.23-1.08.31-1.71.46v-1.86Z"/><path class="cls-1" d="m4.71,4.65c-.27-.23-.48-.42-.71-.61-.27.24-.51.46-.8.72.3.26.53.46.82.7.26-.31.46-.55.69-.82Z"/><path class="cls-1" d="m13.87,3.98c-.32.13-.57.22-.85.33.08.25.15.45.23.69.31-.12.57-.23.9-.36-.11-.27-.19-.46-.28-.66Z"/></g></g></svg>
