<?xml version="1.0" encoding="UTF-8"?><svg id="Layer_2" xmlns="http://www.w3.org/2000/svg" viewBox="0 0 339.88 339.88"><defs><style>.cls-1{fill:none;stroke:#e6553f;stroke-miterlimit:10;}</style></defs><g id="Layer_1-2"><g><line class="cls-1" x1="145.9" y1="185.55" x2="23.52" y2="256.21"/><line class="cls-1" x1="147.67" y1="187.98" x2="33.34" y2="271.04"/><line class="cls-1" x1="149.67" y1="190.21" x2="44.65" y2="284.77"/><line class="cls-1" x1="151.9" y1="192.21" x2="57.34" y2="297.23"/><line class="cls-1" x1="154.33" y1="193.98" x2="71.27" y2="308.31"/><line class="cls-1" x1="156.93" y1="195.48" x2="86.27" y2="317.86"/><line class="cls-1" x1="159.67" y1="196.7" x2="102.19" y2="325.8"/><line class="cls-1" x1="162.52" y1="197.63" x2="118.85" y2="332.03"/><line class="cls-1" x1="165.46" y1="198.25" x2="136.08" y2="336.48"/><line class="cls-1" x1="168.44" y1="198.56" x2="153.67" y2="339.11"/><line class="cls-1" x1="171.44" y1="198.56" x2="171.44" y2="339.88"/><line class="cls-1" x1="174.42" y1="198.25" x2="189.2" y2="338.79"/><line class="cls-1" x1="177.36" y1="197.63" x2="206.74" y2="335.86"/><line class="cls-1" x1="180.21" y1="196.7" x2="223.88" y2="331.1"/><line class="cls-1" x1="182.95" y1="195.48" x2="240.43" y2="324.58"/><line class="cls-1" x1="185.55" y1="193.98" x2="256.21" y2="316.36"/><line class="cls-1" x1="187.98" y1="192.21" x2="271.04" y2="306.54"/><line class="cls-1" x1="190.21" y1="190.21" x2="284.77" y2="295.23"/><line class="cls-1" x1="192.21" y1="187.98" x2="297.23" y2="282.54"/><line class="cls-1" x1="193.98" y1="185.55" x2="308.31" y2="268.62"/><line class="cls-1" x1="195.48" y1="182.95" x2="317.86" y2="253.61"/><line class="cls-1" x1="196.7" y1="180.21" x2="325.8" y2="237.69"/><line class="cls-1" x1="197.63" y1="177.36" x2="332.03" y2="221.03"/><line class="cls-1" x1="198.25" y1="174.42" x2="336.48" y2="203.81"/><line class="cls-1" x1="198.56" y1="171.44" x2="339.11" y2="186.21"/><line class="cls-1" x1="198.56" y1="168.44" x2="339.88" y2="168.44"/><line class="cls-1" x1="198.25" y1="165.46" x2="338.79" y2="150.69"/><line class="cls-1" x1="197.63" y1="162.52" x2="335.86" y2="133.14"/><line class="cls-1" x1="196.7" y1="159.67" x2="331.1" y2="116"/><line class="cls-1" x1="195.48" y1="156.93" x2="324.58" y2="99.45"/><line class="cls-1" x1="193.98" y1="154.33" x2="316.36" y2="83.67"/><line class="cls-1" x1="192.21" y1="151.9" x2="306.54" y2="68.84"/><line class="cls-1" x1="190.21" y1="149.67" x2="295.23" y2="55.11"/><line class="cls-1" x1="187.98" y1="147.67" x2="282.54" y2="42.65"/><line class="cls-1" x1="185.55" y1="145.9" x2="268.62" y2="31.57"/><line class="cls-1" x1="182.95" y1="144.4" x2="253.61" y2="22.02"/><line class="cls-1" x1="180.21" y1="143.18" x2="237.69" y2="14.08"/><line class="cls-1" x1="177.36" y1="142.26" x2="221.03" y2="7.85"/><line class="cls-1" x1="174.42" y1="141.63" x2="203.81" y2="3.4"/><line class="cls-1" x1="171.44" y1="141.32" x2="186.21" y2=".77"/><line class="cls-1" x1="168.44" y1="141.32" x2="168.44"/><line class="cls-1" x1="165.46" y1="141.63" x2="150.69" y2="1.09"/><line class="cls-1" x1="162.52" y1="142.26" x2="133.14" y2="4.03"/><line class="cls-1" x1="159.67" y1="143.18" x2="116" y2="8.78"/><line class="cls-1" x1="156.93" y1="144.4" x2="99.45" y2="15.3"/><line class="cls-1" x1="154.33" y1="145.9" x2="83.67" y2="23.52"/><line class="cls-1" x1="151.9" y1="147.67" x2="68.84" y2="33.34"/><line class="cls-1" x1="149.67" y1="149.67" x2="55.11" y2="44.65"/><line class="cls-1" x1="147.67" y1="151.9" x2="42.65" y2="57.34"/><line class="cls-1" x1="145.9" y1="154.33" x2="31.57" y2="71.27"/><line class="cls-1" x1="144.4" y1="156.93" x2="22.02" y2="86.27"/><line class="cls-1" x1="143.18" y1="159.67" x2="14.08" y2="102.19"/><line class="cls-1" x1="142.26" y1="162.52" x2="7.85" y2="118.85"/><line class="cls-1" x1="141.63" y1="165.46" x2="3.4" y2="136.08"/><line class="cls-1" x1="141.32" y1="168.44" x2=".77" y2="153.67"/><line class="cls-1" x1="141.32" y1="171.44" y2="171.44"/><line class="cls-1" x1="141.63" y1="174.42" x2="1.09" y2="189.2"/><line class="cls-1" x1="142.26" y1="177.36" x2="4.03" y2="206.74"/><line class="cls-1" x1="143.18" y1="180.21" x2="8.78" y2="223.88"/><line class="cls-1" x1="144.4" y1="182.95" x2="15.3" y2="240.43"/><line class="cls-1" x1="145.9" y1="185.55" x2="23.52" y2="256.21"/><line class="cls-1" x1="147.67" y1="187.98" x2="33.34" y2="271.04"/><line class="cls-1" x1="149.67" y1="190.21" x2="44.65" y2="284.77"/><line class="cls-1" x1="151.9" y1="192.21" x2="57.34" y2="297.23"/><line class="cls-1" x1="154.33" y1="193.98" x2="71.27" y2="308.31"/><line class="cls-1" x1="156.93" y1="195.48" x2="86.27" y2="317.86"/><line class="cls-1" x1="159.67" y1="196.7" x2="102.19" y2="325.8"/><line class="cls-1" x1="162.52" y1="197.63" x2="118.85" y2="332.03"/><line class="cls-1" x1="165.46" y1="198.25" x2="136.08" y2="336.48"/><line class="cls-1" x1="168.44" y1="198.56" x2="153.67" y2="339.11"/><line class="cls-1" x1="171.44" y1="198.56" x2="171.44" y2="339.88"/></g></g></svg>