<?xml version="1.0" encoding="UTF-8"?><svg id="Layer_2" xmlns="http://www.w3.org/2000/svg" viewBox="0 0 493.21 481.08"><defs><style>.cls-1{fill:none;stroke:#e6553f;stroke-miterlimit:10;}</style></defs><g id="Layer_1-2"><path class="cls-1" d="m258.51,162.4l-54.89,38.31-38.31-54.89,54.89-38.31,38.31,54.89Zm-29.15-85.2l-54.89,38.31,38.31,54.89,54.89-38.31-38.31-54.89Zm0,.13l-9.17,30.22m47.48,24.67l-9.17,30.22m-45.73,8.09l-9.17,30.22m-29.15-85.12l-9.17,30.22m93.23,16.52l-54.89,38.31,38.31,54.89,54.89-38.31-38.31-54.89Zm9.17-30.31l-54.89,38.31,38.31,54.89,54.89-38.31-38.31-54.89Zm0,.13l-9.17,30.22m47.48,24.67l-9.17,30.22m-45.73,8.09l-9.17,30.22m-29.15-85.12l-9.17,30.22m71.51-131.47l-54.89,38.31,38.31,54.89,54.89-38.31-38.31-54.89Zm9.17-30.31l-54.89,38.31,38.31,54.89,54.89-38.31-38.31-54.89Zm0,.13l-9.17,30.22m47.48,24.67l-9.17,30.22m-45.73,8.09l-9.17,30.22m-29.15-85.12l-9.17,30.22m93.23,16.52l-54.89,38.31,38.31,54.89,54.89-38.31-38.31-54.89Zm9.17-30.31l-54.89,38.31,38.31,54.89,54.89-38.31-38.31-54.89Zm0,.13l-9.17,30.22m47.48,24.67l-9.17,30.22m-45.73,8.09l-9.17,30.22m-29.15-85.12l-9.17,30.22M330.07,31l-54.89,38.31,38.31,54.89,54.89-38.31-38.31-54.89Zm9.17-30.31l-54.89,38.31,38.31,54.89,54.89-38.31L339.24.7Zm0,.13l-9.17,30.22m47.48,24.67l-9.17,30.22m-45.73,8.09l-9.17,30.22m-29.15-85.12l-9.17,30.22m93.23,16.52l-54.89,38.31,38.31,54.89,54.89-38.31-38.31-54.89Zm9.17-30.31l-54.89,38.31,38.31,54.89,54.89-38.31-38.31-54.89Zm0,.13l-9.17,30.22m47.48,24.67l-9.17,30.22m-45.73,8.09l-9.17,30.22m-29.15-85.12l-9.17,30.22m-16.68,93.06l-54.89,38.31,38.31,54.89,54.89-38.31-38.31-54.89Zm9.17-30.31l-54.89,38.31,38.31,54.89,54.89-38.31-38.31-54.89Zm0,.13l-9.17,30.22m47.48,24.67l-9.17,30.22m-45.73,8.09l-9.17,30.22m-29.15-85.12l-9.17,30.22m93.23,16.52l-54.89,38.31,38.31,54.89,54.89-38.31-38.31-54.89Zm9.17-30.31l-54.89,38.31,38.31,54.89,54.89-38.31-38.31-54.89Zm0,.13l-9.17,30.22m47.48,24.67l-9.17,30.22m-45.73,8.09l-9.17,30.22m-29.15-85.12l-9.17,30.22m71.51-131.47l-54.89,38.31,38.31,54.89,54.89-38.31-38.31-54.89Zm9.17-30.31l-54.89,38.31,38.31,54.89,54.89-38.31-38.31-54.89Zm0,.13l-9.17,30.22m47.48,24.67l-9.17,30.22m-45.73,8.09l-9.17,30.22m-29.15-85.12l-9.17,30.22m93.23,16.52l-54.89,38.31,38.31,54.89,54.89-38.31-38.31-54.89Zm9.17-30.31l-54.89,38.31,38.31,54.89,54.89-38.31-38.31-54.89Zm0,.13l-9.17,30.22m47.48,24.67l-9.17,30.22m-45.73,8.09l-9.17,30.22m-29.15-85.12l-9.17,30.22m71.48-131.51l-54.89,38.31,38.31,54.89,54.89-38.31-38.31-54.89Zm9.17-30.31l-54.89,38.31,38.31,54.89,54.89-38.31-38.31-54.89Zm0,.13l-9.17,30.22m47.48,24.67l-9.17,30.22m-45.73,8.09l-9.17,30.22m-29.15-85.12l-9.17,30.22m93.23,16.52l-54.89,38.31,38.31,54.89,54.89-38.31-38.31-54.89Zm9.17-30.31l-54.89,38.31,38.31,54.89,54.89-38.31-38.31-54.89Zm0,.13l-9.17,30.22m47.48,24.67l-9.17,30.22m-45.73,8.09l-9.17,30.22m-29.15-85.12l-9.17,30.22m-334.55-11.51L.7,260.83l38.31,54.89,54.89-38.31-38.31-54.89Zm9.17-30.31l-54.89,38.31,38.31,54.89,54.89-38.31-38.31-54.89Zm0,.13l-9.17,30.22m47.48,24.67l-9.17,30.22m-45.73,8.09l-9.17,30.22m-29.15-85.12l-9.17,30.22m93.23,16.52l-54.89,38.31,38.31,54.89,54.89-38.31-38.31-54.89Zm9.17-30.31l-54.89,38.31,38.31,54.89,54.89-38.31-38.31-54.89Zm0,.13l-9.17,30.22m47.48,24.67l-9.17,30.22m-45.73,8.09l-9.17,30.22m-29.15-85.12l-9.17,30.22m71.51-131.47l-54.89,38.31,38.31,54.89,54.89-38.31-38.31-54.89Zm9.17-30.31l-54.89,38.31,38.31,54.89,54.89-38.31-38.31-54.89Zm0,.13l-9.17,30.22m47.48,24.67l-9.17,30.22m-45.73,8.09l-9.17,30.22m-29.15-85.12l-9.17,30.22m93.23,16.52l-54.89,38.31,38.31,54.89,54.89-38.31-38.31-54.89Zm9.17-30.31l-54.89,38.31,38.31,54.89,54.89-38.31-38.31-54.89Zm0,.13l-9.17,30.22m47.48,24.67l-9.17,30.22m-45.73,8.09l-9.17,30.22m-29.15-85.12l-9.17,30.22m71.48-131.51l-54.89,38.31,38.31,54.89,54.89-38.31-38.31-54.89Zm9.17-30.31l-54.89,38.31,38.31,54.89,54.89-38.31-38.31-54.89Zm0,.13l-9.17,30.22m47.48,24.67l-9.17,30.22m-45.73,8.09l-9.17,30.22m-29.15-85.12l-9.17,30.22m93.23,16.52l-54.89,38.31,38.31,54.89,54.89-38.31-38.31-54.89Zm9.17-30.31l-54.89,38.31,38.31,54.89,54.89-38.31-38.31-54.89Zm0,.13l-9.17,30.22m47.48,24.67l-9.17,30.22m-45.73,8.09l-9.17,30.22m-29.15-85.12l-9.17,30.22m-16.68,93.06l-54.89,38.31,38.31,54.89,54.89-38.31-38.31-54.89Zm9.17-30.31l-54.89,38.31,38.31,54.89,54.89-38.31-38.31-54.89Zm0,.13l-9.17,30.22m47.48,24.67l-9.17,30.22m-45.73,8.09l-9.17,30.22m-29.15-85.12l-9.17,30.22m93.23,16.52l-54.89,38.31,38.31,54.89,54.89-38.31-38.31-54.89Zm9.17-30.31l-54.89,38.31,38.31,54.89,54.89-38.31-38.31-54.89Zm-9.17,30.35l9.17-30.22m29.15,85.12l9.17-30.22m-54.89,38.31l-9.17,30.22m-29.15-85.12l-9.17,30.22m71.51-131.47l-54.89,38.31,38.31,54.89,54.89-38.31-38.31-54.89Zm9.17-30.31l-54.89,38.31,38.31,54.89,54.89-38.31-38.31-54.89Zm0,.13l-9.17,30.22m47.48,24.67l-9.17,30.22m-45.73,8.09l-9.17,30.22m-29.15-85.12l-9.17,30.22m93.23,16.52l-54.89,38.31,38.31,54.89,54.89-38.31-38.31-54.89Zm9.17-30.31l-54.89,38.31,38.31,54.89,54.89-38.31-38.31-54.89Zm0,.13l-9.17,30.22m47.48,24.67l-9.17,30.22m-45.73,8.09l-9.17,30.22m-29.15-85.12l-9.17,30.22m71.48-131.51l-54.89,38.31,38.31,54.89,54.89-38.31-38.31-54.89Zm9.17-30.31l-54.89,38.31,38.31,54.89,54.89-38.31-38.31-54.89Zm0,.13l-9.17,30.22m47.48,24.67l-9.17,30.22m-45.73,8.09l-9.17,30.22m-29.15-85.12l-9.17,30.22m93.23,16.52l-54.89,38.31,38.31,54.89,54.89-38.31-38.31-54.89Zm9.17-30.31l-54.89,38.31,38.31,54.89,54.89-38.31-38.31-54.89Zm0,.13l-9.17,30.22m47.48,24.67l-9.17,30.22m-45.73,8.09l-9.17,30.22m-29.15-85.12l-9.17,30.22"/></g></svg>