<?xml version="1.0" encoding="UTF-8"?><svg id="Layer_2" xmlns="http://www.w3.org/2000/svg" viewBox="0 0 228.84 225.25"><defs><style>.cls-1{fill:none;stroke:#e6553f;stroke-miterlimit:10;}</style></defs><g id="Layer_1-2"><g><line class="cls-1" x1="213.08" y1="182.96" x2="12.22" y2="39.87"/><line class="cls-1" x1="201.91" y1="28.81" x2="29.16" y2="199.69"/><line class="cls-1" x1="47.91" y1="16.12" x2="189.66" y2="207.73"/><line class="cls-1" x1="11.28" y1="161.86" x2="222.71" y2="55.03"/><line class="cls-1" x1="149.5" y1="219.12" x2="77.06" y2=".16"/><line class="cls-1" x1="227.68" y1="95.28" x2=".08" y2="131.48"/><line class="cls-1" x1="117.59" y1="1.5" x2="117.74" y2="225.25"/><line class="cls-1" x1="7.75" y1="92.83" x2="228.76" y2="126.66"/><line class="cls-1" x1="80.76" y1="212.03" x2="148.75" y2="5.23"/><line class="cls-1" x1="209.92" y1="160.11" x2="16.3" y2="63.51"/><line class="cls-1" x1="178.85" y1="28.38" x2="53.14" y2="199.37"/><line class="cls-1" x1="43.88" y1="38.17" x2="193.1" y2="184.68"/><line class="cls-1" x1="32.43" y1="169.08" x2="200.48" y2="48.24"/><line class="cls-1" x1="159.94" y1="199.94" x2="66.88" y2="20.44"/><line class="cls-1" x1="210.37" y1="82.35" x2="18.52" y2="144.33"/><line class="cls-1" x1="102.12" y1="16.14" x2="133.32" y2="209.52"/><line class="cls-1" x1="19.78" y1="109.89" x2="215.66" y2="109.33"/><line class="cls-1" x1="99.5" y1="203.07" x2="129.59" y2="15.16"/><line class="cls-1" x1="204.01" y1="140.79" x2="23.11" y2="83.39"/><line class="cls-1" x1="158.84" y1="31.11" x2="73.84" y2="195.86"/><line class="cls-1" x1="43.44" y1="57.77" x2="192.87" y2="164.29"/><line class="cls-1" x1="51.72" y1="172.47" x2="180.31" y2="45.36"/><line class="cls-1" x1="166.31" y1="181.95" x2="60.88" y2="39.34"/><line class="cls-1" x1="193.6" y1="73.52" x2="36.25" y2="152.95"/><line class="cls-1" x1="90.77" y1="30.88" x2="144.61" y2="193.82"/><line class="cls-1" x1="32.56" y1="123.01" x2="201.93" y2="96.12"/><line class="cls-1" x1="114.46" y1="192.81" x2="114.4" y2="26.32"/><line class="cls-1" x1="196.21" y1="124.89" x2="31.76" y2="99.66"/><line class="cls-1" x1="141.91" y1="36.17" x2="91.27" y2="190.03"/><line class="cls-1" x1="45.79" y1="74.77" x2="189.84" y2="146.7"/><line class="cls-1" x1="68.88" y1="172.8" x2="162.46" y2="45.6"/><line class="cls-1" x1="169.31" y1="165.55" x2="58.32" y2="56.49"/><line class="cls-1" x1="177.87" y1="68.14" x2="52.79" y2="158.01"/><line class="cls-1" x1="82.99" y1="45.15" x2="152.2" y2="178.73"/><line class="cls-1" x1="45.44" y1="132.63" x2="188.21" y2="86.56"/><line class="cls-1" x1="125.97" y1="181.93" x2="102.8" y2="38.02"/><line class="cls-1" x1="187.26" y1="112.19" x2="41.51" y2="112.55"/><line class="cls-1" x1="127.97" y1="42.83" x2="105.53" y2="182.65"/><line class="cls-1" x1="50.19" y1="89.15" x2="184.78" y2="131.91"/><line class="cls-1" x1="83.77" y1="170.77" x2="147.06" y2="48.2"/><line class="cls-1" x1="169.64" y1="150.96" x2="58.48" y2="71.66"/><line class="cls-1" x1="163.51" y1="65.61" x2="67.8" y2="160.16"/><line class="cls-1" x1="78.25" y1="58.53" x2="156.66" y2="164.67"/><line class="cls-1" x1="57.92" y1="139.21" x2="175.02" y2="80.14"/><line class="cls-1" x1="134.42" y1="170.96" x2="94.4" y2="49.7"/><line class="cls-1" x1="177.75" y1="102.42" x2="51.72" y2="122.38"/><line class="cls-1" x1="116.84" y1="50.46" x2="116.84" y2="174.34"/></g></g></svg>
