<?xml version="1.0" encoding="UTF-8"?><svg id="Layer_2" xmlns="http://www.w3.org/2000/svg" viewBox="0 0 98.97 98.97"><defs><style>.cls-1{fill:#332E27;}</style></defs><g id="Layer_1-2"><path class="cls-1" d="m0,0v98.97h98.97V0H0Zm31.8,78.83h-13.28v-42.76h13.28v42.76Zm-6.65-48.6c-4.25,0-7.69-3.52-7.69-7.76,0-4.25,3.44-7.69,7.69-7.69,4.25,0,7.69,3.44,7.69,7.69,0,4.25-3.45,7.76-7.69,7.76Zm56.36,48.6h-13.27v-20.82c0-4.96-.1-11.32-6.9-11.32s-7.96,5.39-7.96,10.97v21.17h-13.27v-42.76h12.74v5.83h.19c1.77-3.36,6.1-6.91,12.56-6.91,13.44,0,15.91,8.85,15.91,20.35v23.49Z"/></g></svg>
