<?xml version="1.0" encoding="UTF-8"?><svg id="Layer_2" xmlns="http://www.w3.org/2000/svg" viewBox="0 0 122.34 113.43"><defs><style>.cls-1{fill:none;stroke:#e6553f;stroke-miterlimit:10;stroke-width:.5px;}</style></defs><g id="Layer_1-2"><g><line class="cls-1" x1="89.1" y1="47.88" x2="34.46" y2="54.35"/><line class="cls-1" x1="67.29" y1="27.36" x2="50.13" y2="79.91"/><line class="cls-1" x1="38.23" y1="38.93" x2="81.41" y2="75.99"/><line class="cls-1" x1="36.92" y1="70.2" x2="91.04" y2="45.82"/><line class="cls-1" x1="66.42" y1="84.11" x2="66.15" y2="24.75"/><line class="cls-1" x1="92.43" y1="62.82" x2="35.23" y2="38.92"/><line class="cls-1" x1="83.09" y1="30.4" x2="35.62" y2="72.93"/><line class="cls-1" x1="47.91" y1="25.74" x2="68.49" y2="86.41"/><line class="cls-1" x1="28.38" y1="55.98" x2="95.53" y2="61.86"/><line class="cls-1" x1="49.09" y1="86.13" x2="83.49" y2="27.18"/><line class="cls-1" x1="86.95" y1="79.47" x2="44.99" y2="24.06"/><line class="cls-1" x1="96.76" y1="42.17" x2="25.51" y2="57.97"/><line class="cls-1" x1="65.09" y1="18.05" x2="49.78" y2="89.56"/><line class="cls-1" x1="28.33" y1="37.16" x2="90.54" y2="80.24"/><line class="cls-1" x1="30.97" y1="78.52" x2="99.03" y2="39.21"/><line class="cls-1" x1="71.88" y1="92.93" x2="63.21" y2="14.76"/><line class="cls-1" x1="103.24" y1="61.42" x2="24.37" y2="37.54"/><line class="cls-1" x1="86.37" y1="19.95" x2="29.64" y2="82.29"/><line class="cls-1" x1="39.27" y1="18.49" x2="74.94" y2="95.68"/><line class="cls-1" x1="17.71" y1="60.93" x2="107.2" y2="59.74"/><line class="cls-1" x1="49.28" y1="97.89" x2="86.45" y2="15.65"/><line class="cls-1" x1="98.34" y1="84.08" x2="35.18" y2="16.67"/><line class="cls-1" x1="106.07" y1="33.64" x2="14.2" y2="63.93"/><line class="cls-1" x1="60.87" y1="6.07" x2="50.67" y2="102.31"/><line class="cls-1" x1="15.01" y1="36.14" x2="103.19" y2="84.61"/><line class="cls-1" x1="24.29" y1="90.27" x2="108.65" y2="29.43"/><line class="cls-1" x1="80.32" y1="103.81" x2="57.93" y2="1.99"/><line class="cls-1" x1="117.32" y1="58.13" x2="9.83" y2="37.17"/><line class="cls-1" x1="89.24" y1="5.75" x2="23.06" y2="95.42"/><line class="cls-1" x1="26.84" y1="10.1" x2="84.74" y2="107.03"/><line class="cls-1" x1="4.31" y1="68.87" x2="122.31" y2="55.4"/><line class="cls-1" x1="51.18" y1="113.36" x2="88.75" y2=".08"/><line class="cls-1" x1="114.03" y1="88.64" x2="21.18" y2="8.24"/><line class="cls-1" x1="117.16" y1="21.17" x2=".1" y2="73.29"/></g></g></svg>