<?xml version="1.0" encoding="UTF-8"?><svg id="Layer_2" xmlns="http://www.w3.org/2000/svg" viewBox="0 0 98.97 98.97"><defs><style>.cls-1{fill:#332E27;}</style></defs><g id="Layer_1-2"><g><path class="cls-1" d="m48.65,37.25c-6.29,0-11.4,5.11-11.4,11.4s5.11,11.4,11.4,11.4,11.4-5.11,11.4-11.4-5.11-11.4-11.4-11.4Z"/><path class="cls-1" d="m62.78,19.31h-28.85c-8.22,0-14.91,6.69-14.91,14.91v28.85c0,8.22,6.69,14.91,14.91,14.91h28.85c8.22,0,14.91-6.69,14.91-14.91v-28.85c0-8.22-6.69-14.91-14.91-14.91Zm-14.13,47.12c-9.81,0-17.8-7.98-17.8-17.79s7.98-17.8,17.8-17.8,17.79,7.98,17.79,17.8-7.98,17.79-17.79,17.79Zm18.83-32.55c-2.34,0-4.24-1.89-4.24-4.24s1.9-4.24,4.24-4.24,4.24,1.9,4.24,4.24-1.9,4.24-4.24,4.24Z"/><path class="cls-1" d="m0,0v98.97h98.97V0H0Zm84.48,63.07c0,11.97-9.74,21.7-21.7,21.7h-28.85c-11.97,0-21.7-9.74-21.7-21.7v-28.85c0-11.97,9.74-21.7,21.7-21.7h28.85c11.97,0,21.7,9.74,21.7,21.7v28.85Z"/></g></g></svg>
