<?xml version="1.0" encoding="UTF-8"?><svg id="Layer_2" xmlns="http://www.w3.org/2000/svg" viewBox="0 0 96.86 96.86"><defs><style>.cls-1{fill:none;stroke:#e6553f;stroke-miterlimit:10;}</style></defs><g id="Layer_1-2"><g><line class="cls-1" x1="55.35" y1="3.1" x2="23.73" y2="89.99"/><line class="cls-1" x1="93.4" y1="39.43" x2=".93" y2="39.43"/><line class="cls-1" x1="72.27" y1="87.61" x2="40.64" y2=".71"/><line class="cls-1" x1="19.77" y1="84.23" x2="90.61" y2="24.79"/><line class="cls-1" x1="4.99" y1="33.74" x2="85.07" y2="79.98"/><line class="cls-1" x1="47.38" y1="2.59" x2="31.32" y2="93.65"/><line class="cls-1" x1="91.15" y1="31.76" x2=".09" y2="47.82"/><line class="cls-1" x1="78.71" y1="82.87" x2="32.47" y2="2.79"/><line class="cls-1" x1="26.42" y1="88.66" x2="85.86" y2="17.83"/><line class="cls-1" x1="3.1" y1="41.51" x2="89.99" y2="73.14"/><line class="cls-1" x1="39.43" y1="3.47" x2="39.43" y2="95.94"/><line class="cls-1" x1="87.61" y1="24.6" x2=".71" y2="56.22"/><line class="cls-1" x1="84.23" y1="77.09" x2="24.79" y2="6.26"/><line class="cls-1" x1="33.74" y1="91.87" x2="79.98" y2="11.79"/><line class="cls-1" x1="2.59" y1="49.49" x2="93.65" y2="65.54"/><line class="cls-1" x1="31.76" y1="5.71" x2="47.82" y2="96.78"/><line class="cls-1" x1="82.87" y1="18.15" x2="2.79" y2="64.39"/><line class="cls-1" x1="88.66" y1="70.44" x2="17.83" y2="11"/><line class="cls-1" x1="41.51" y1="93.76" x2="73.14" y2="6.87"/><line class="cls-1" x1="3.47" y1="57.43" x2="95.94" y2="57.43"/><line class="cls-1" x1="24.6" y1="9.26" x2="56.22" y2="96.15"/><line class="cls-1" x1="77.09" y1="12.63" x2="6.26" y2="72.07"/><line class="cls-1" x1="91.87" y1="63.12" x2="11.79" y2="16.89"/><line class="cls-1" x1="49.49" y1="94.28" x2="65.54" y2="3.21"/><line class="cls-1" x1="5.71" y1="65.1" x2="96.78" y2="49.05"/><line class="cls-1" x1="18.15" y1="13.99" x2="64.39" y2="94.07"/><line class="cls-1" x1="70.44" y1="8.2" x2="11" y2="79.04"/><line class="cls-1" x1="93.76" y1="55.35" x2="6.87" y2="23.73"/><line class="cls-1" x1="57.43" y1="93.4" x2="57.43" y2=".93"/><line class="cls-1" x1="9.26" y1="72.27" x2="96.15" y2="40.64"/><line class="cls-1" x1="12.63" y1="19.77" x2="72.07" y2="90.61"/><line class="cls-1" x1="63.12" y1="4.99" x2="16.89" y2="85.07"/><line class="cls-1" x1="94.28" y1="47.38" x2="3.21" y2="31.32"/><line class="cls-1" x1="65.1" y1="91.15" x2="49.05" y2=".09"/><line class="cls-1" x1="13.99" y1="78.71" x2="94.07" y2="32.47"/><line class="cls-1" x1="8.2" y1="26.42" x2="79.04" y2="85.86"/><line class="cls-1" x1="55.35" y1="3.1" x2="23.73" y2="89.99"/><line class="cls-1" x1="93.4" y1="39.43" x2=".93" y2="39.43"/><line class="cls-1" x1="72.27" y1="87.61" x2="40.64" y2=".71"/><line class="cls-1" x1="19.77" y1="84.23" x2="90.61" y2="24.79"/><line class="cls-1" x1="4.99" y1="33.74" x2="85.07" y2="79.98"/><line class="cls-1" x1="47.38" y1="2.59" x2="31.32" y2="93.65"/><line class="cls-1" x1="91.15" y1="31.76" x2=".09" y2="47.82"/><line class="cls-1" x1="78.71" y1="82.87" x2="32.47" y2="2.79"/><line class="cls-1" x1="26.42" y1="88.66" x2="85.86" y2="17.83"/><line class="cls-1" x1="3.1" y1="41.51" x2="89.99" y2="73.14"/><line class="cls-1" x1="39.43" y1="3.47" x2="39.43" y2="95.94"/></g></g></svg>
